<svg width="188" height="34" viewBox="0 0 188 34" fill="none" xmlns="http://www.w3.org/2000/svg">
<path d="M0.7 22.946C0.597333 22.946 0.513333 22.9133 0.448 22.848C0.392 22.792 0.364 22.7127 0.364 22.61V19.586C0.364 19.4833 0.396667 19.404 0.462 19.348C0.527333 19.2827 0.606667 19.25 0.7 19.25H0.98C1.41867 19.25 1.74067 18.8487 1.946 18.046C2.15133 17.234 2.254 16.0393 2.254 14.462V11.536C2.254 11.4333 2.28667 11.354 2.352 11.298C2.41733 11.2327 2.49667 11.2 2.59 11.2H8.596C8.69867 11.2 8.78267 11.2327 8.848 11.298C8.91333 11.3633 8.946 11.4473 8.946 11.55V19.25H9.618C9.72067 19.25 9.80467 19.2827 9.87 19.348C9.93533 19.4133 9.968 19.4927 9.968 19.586V22.61C9.968 22.7033 9.93533 22.7827 9.87 22.848C9.80467 22.9133 9.72067 22.946 9.618 22.946H8.358C8.26467 22.946 8.18533 22.9133 8.12 22.848C8.05467 22.792 8.022 22.7127 8.022 22.61V21H2.31V22.61C2.31 22.7127 2.27733 22.792 2.212 22.848C2.14667 22.9133 2.06267 22.946 1.96 22.946H0.7ZM7 19.25V12.95H4.13V14.714C4.13 15.862 4.06467 16.8047 3.934 17.542C3.81267 18.2793 3.62133 18.8487 3.36 19.25H7ZM14.5756 21.14C13.4836 21.14 12.639 20.86 12.0416 20.3C11.4443 19.7307 11.1223 18.956 11.0756 17.976L11.0616 17.36L11.0756 16.744C11.1223 15.7733 11.449 15.0033 12.0556 14.434C12.6623 13.8647 13.5023 13.58 14.5756 13.58C15.649 13.58 16.489 13.8647 17.0956 14.434C17.7023 15.0033 18.029 15.7733 18.0756 16.744C18.085 16.856 18.0896 17.0613 18.0896 17.36C18.0896 17.6587 18.085 17.864 18.0756 17.976C18.029 18.956 17.707 19.7307 17.1096 20.3C16.5123 20.86 15.6676 21.14 14.5756 21.14ZM14.5756 19.754C15.0703 19.754 15.453 19.6 15.7236 19.292C15.9943 18.9747 16.1436 18.5127 16.1716 17.906C16.181 17.8127 16.1856 17.6307 16.1856 17.36C16.1856 17.0893 16.181 16.9073 16.1716 16.814C16.1436 16.2073 15.9943 15.75 15.7236 15.442C15.453 15.1247 15.0703 14.966 14.5756 14.966C14.081 14.966 13.6983 15.1247 13.4276 15.442C13.157 15.75 13.0076 16.2073 12.9796 16.814L12.9656 17.36L12.9796 17.906C13.0076 18.5127 13.157 18.9747 13.4276 19.292C13.6983 19.6 14.081 19.754 14.5756 19.754ZM26.4308 17.192C26.4401 17.2947 26.4448 17.4533 26.4448 17.668C26.4448 17.8733 26.4401 18.0227 26.4308 18.116C26.3841 19.0493 26.0621 19.7867 25.4648 20.328C24.8768 20.8693 24.0321 21.14 22.9308 21.14C21.7735 21.14 20.9101 20.8413 20.3408 20.244C19.7808 19.6373 19.4775 18.746 19.4308 17.57L19.4168 16.73L19.4308 15.89C19.4588 14.5647 19.6641 13.5707 20.0468 12.908C20.4295 12.236 20.9848 11.7507 21.7128 11.452C22.4408 11.144 23.6168 10.794 25.2408 10.402L25.3108 10.388C25.3855 10.388 25.4555 10.416 25.5208 10.472C25.5861 10.5187 25.6235 10.584 25.6328 10.668L25.8148 11.592L25.8288 11.676C25.8288 11.7507 25.8055 11.816 25.7588 11.872C25.7121 11.9187 25.6515 11.9513 25.5768 11.97L25.1288 12.068C24.0181 12.32 23.2201 12.5347 22.7348 12.712C22.2588 12.88 21.8948 13.1413 21.6428 13.496C21.3908 13.8507 21.2461 14.3827 21.2088 15.092C21.4328 14.812 21.7268 14.588 22.0908 14.42C22.4641 14.252 22.8561 14.168 23.2668 14.168C24.2468 14.168 25.0075 14.4387 25.5488 14.98C26.0901 15.5213 26.3841 16.2587 26.4308 17.192ZM24.5268 18.046C24.5361 17.9807 24.5408 17.8593 24.5408 17.682C24.5408 17.486 24.5361 17.346 24.5268 17.262C24.5081 16.6833 24.3681 16.24 24.1068 15.932C23.8455 15.6147 23.4908 15.456 23.0428 15.456C22.5295 15.456 22.1235 15.6147 21.8248 15.932C21.5261 16.24 21.3675 16.6833 21.3488 17.262L21.3348 17.682L21.3488 18.046C21.3675 18.634 21.5121 19.082 21.7828 19.39C22.0535 19.698 22.4361 19.852 22.9308 19.852C23.4255 19.852 23.8081 19.7027 24.0788 19.404C24.3588 19.096 24.5081 18.6433 24.5268 18.046ZM30.1083 21.14C29.6323 21.14 29.1936 21.0467 28.7923 20.86C28.4003 20.664 28.0876 20.4027 27.8543 20.076C27.6303 19.7493 27.5183 19.39 27.5183 18.998C27.5183 18.3633 27.775 17.85 28.2883 17.458C28.8016 17.066 29.5063 16.8 30.4023 16.66L32.3203 16.38V16.086C32.3203 15.6753 32.2176 15.3673 32.0123 15.162C31.807 14.9567 31.4756 14.854 31.0183 14.854C30.7103 14.854 30.4583 14.9147 30.2623 15.036C30.0756 15.148 29.9263 15.26 29.8143 15.372C29.7023 15.4933 29.6276 15.5727 29.5903 15.61C29.553 15.722 29.483 15.778 29.3803 15.778H28.3023C28.2183 15.778 28.1436 15.75 28.0783 15.694C28.0223 15.638 27.9943 15.5633 27.9943 15.47C28.0036 15.2367 28.1156 14.9707 28.3303 14.672C28.5543 14.3733 28.895 14.1167 29.3523 13.902C29.8096 13.6873 30.3696 13.58 31.0323 13.58C32.1336 13.58 32.9363 13.8273 33.4403 14.322C33.9443 14.8167 34.1963 15.4653 34.1963 16.268V20.664C34.1963 20.7573 34.1636 20.8367 34.0983 20.902C34.0423 20.9673 33.963 21 33.8603 21H32.7263C32.633 21 32.5536 20.9673 32.4883 20.902C32.423 20.8367 32.3903 20.7573 32.3903 20.664V20.118C32.185 20.4167 31.891 20.664 31.5083 20.86C31.135 21.0467 30.6683 21.14 30.1083 21.14ZM30.5843 19.81C31.0976 19.81 31.5176 19.642 31.8443 19.306C32.171 18.97 32.3343 18.48 32.3343 17.836V17.542L30.9343 17.766C30.393 17.85 29.9823 17.9853 29.7023 18.172C29.4316 18.3587 29.2963 18.5873 29.2963 18.858C29.2963 19.1567 29.4223 19.39 29.6743 19.558C29.9263 19.726 30.2296 19.81 30.5843 19.81ZM36.3284 21C36.235 21 36.1557 20.9673 36.0904 20.902C36.025 20.8367 35.9924 20.7573 35.9924 20.664V14.056C35.9924 13.9627 36.025 13.8833 36.0904 13.818C36.1557 13.7527 36.235 13.72 36.3284 13.72H39.4364C40.3977 13.72 41.121 13.8973 41.6064 14.252C42.101 14.6067 42.3484 15.1013 42.3484 15.736C42.3484 16.1093 42.2784 16.408 42.1384 16.632C41.9984 16.8467 41.7884 17.038 41.5084 17.206C41.835 17.3553 42.087 17.5793 42.2644 17.878C42.451 18.1767 42.5444 18.5127 42.5444 18.886C42.5444 19.5673 42.2924 20.09 41.7884 20.454C41.2844 20.818 40.5517 21 39.5904 21H36.3284ZM39.4084 16.688C39.7817 16.688 40.0757 16.6133 40.2904 16.464C40.505 16.3053 40.6124 16.0767 40.6124 15.778C40.6124 15.4887 40.5097 15.2833 40.3044 15.162C40.099 15.0407 39.8004 14.98 39.4084 14.98H37.7844V16.688H39.4084ZM39.4644 19.74C39.847 19.74 40.1457 19.67 40.3604 19.53C40.5844 19.3807 40.6964 19.1613 40.6964 18.872C40.6964 18.564 40.5937 18.34 40.3884 18.2C40.1924 18.06 39.8844 17.99 39.4644 17.99H37.7844V19.74H39.4644ZM50.7905 13.72C50.8745 13.72 50.9491 13.7527 51.0145 13.818C51.0798 13.874 51.1125 13.944 51.1125 14.028V20.664C51.1125 20.7573 51.0798 20.8367 51.0145 20.902C50.9491 20.9673 50.8698 21 50.7765 21H49.6145C49.5211 21 49.4418 20.9673 49.3765 20.902C49.3111 20.8367 49.2785 20.7573 49.2785 20.664V16.17L45.9185 20.776C45.8345 20.9253 45.7085 21 45.5405 21H44.4765C44.3925 21 44.3178 20.972 44.2525 20.916C44.1871 20.8507 44.1545 20.7713 44.1545 20.678V14.056C44.1545 13.9627 44.1871 13.8833 44.2525 13.818C44.3178 13.7527 44.3971 13.72 44.4905 13.72H45.6525C45.7551 13.72 45.8345 13.7527 45.8905 13.818C45.9558 13.874 45.9885 13.9533 45.9885 14.056V18.564L49.3485 13.944C49.4511 13.7947 49.5771 13.72 49.7265 13.72H50.7905ZM55.1031 21C55.0098 21 54.9305 20.9673 54.8651 20.902C54.7998 20.8367 54.7671 20.7573 54.7671 20.664V15.204H52.4851C52.3918 15.204 52.3125 15.1713 52.2471 15.106C52.1818 15.0407 52.1491 14.9567 52.1491 14.854V14.056C52.1491 13.9533 52.1818 13.874 52.2471 13.818C52.3125 13.7527 52.3918 13.72 52.4851 13.72H58.8411C58.9438 13.72 59.0278 13.7527 59.0931 13.818C59.1585 13.8833 59.1911 13.9627 59.1911 14.056V14.854C59.1911 14.9473 59.1585 15.0313 59.0931 15.106C59.0278 15.1713 58.9438 15.204 58.8411 15.204H56.5731V20.664C56.5731 20.7573 56.5405 20.8367 56.4751 20.902C56.4191 20.9673 56.3398 21 56.2371 21H55.1031ZM60.637 21C60.5436 21 60.4643 20.9673 60.399 20.902C60.3336 20.8367 60.301 20.7573 60.301 20.664V14.056C60.301 13.9627 60.3336 13.8833 60.399 13.818C60.4643 13.7527 60.5436 13.72 60.637 13.72H61.813C61.9063 13.72 61.9856 13.7527 62.051 13.818C62.1163 13.8833 62.149 13.9627 62.149 14.056V16.03H63.591C64.5243 16.03 65.2336 16.254 65.719 16.702C66.2043 17.1407 66.447 17.7567 66.447 18.55C66.447 19.362 66.195 19.9733 65.691 20.384C65.187 20.7947 64.4496 21 63.479 21H60.637ZM63.437 19.67C63.9036 19.67 64.2443 19.586 64.459 19.418C64.6736 19.2407 64.781 18.9513 64.781 18.55C64.781 18.1487 64.6736 17.85 64.459 17.654C64.2443 17.458 63.9036 17.36 63.437 17.36H62.121V19.67H63.437ZM73.15 21C73.0567 21 72.9773 20.9673 72.912 20.902C72.8467 20.8367 72.814 20.7573 72.814 20.664V15.204H70.532C70.4387 15.204 70.3593 15.1713 70.294 15.106C70.2287 15.0407 70.196 14.9567 70.196 14.854V14.056C70.196 13.9533 70.2287 13.874 70.294 13.818C70.3593 13.7527 70.4387 13.72 70.532 13.72H76.888C76.9907 13.72 77.0747 13.7527 77.14 13.818C77.2053 13.8833 77.238 13.9627 77.238 14.056V14.854C77.238 14.9473 77.2053 15.0313 77.14 15.106C77.0747 15.1713 76.9907 15.204 76.888 15.204H74.62V20.664C74.62 20.7573 74.5873 20.8367 74.522 20.902C74.466 20.9673 74.3867 21 74.284 21H73.15ZM78.6978 23.66C78.6045 23.66 78.5252 23.6273 78.4598 23.562C78.3945 23.506 78.3618 23.4267 78.3618 23.324V14.056C78.3618 13.9533 78.3945 13.874 78.4598 13.818C78.5252 13.7527 78.6045 13.72 78.6978 13.72H79.8038C79.9065 13.72 79.9858 13.7527 80.0418 13.818C80.1072 13.874 80.1398 13.9533 80.1398 14.056V14.616C80.6625 13.9253 81.4092 13.58 82.3798 13.58C83.3225 13.58 84.0458 13.8787 84.5498 14.476C85.0538 15.064 85.3245 15.862 85.3618 16.87C85.3712 16.982 85.3758 17.1453 85.3758 17.36C85.3758 17.584 85.3712 17.752 85.3618 17.864C85.3245 18.844 85.0538 19.6373 84.5498 20.244C84.0458 20.8413 83.3225 21.14 82.3798 21.14C81.4372 21.14 80.7185 20.8087 80.2238 20.146V23.324C80.2238 23.4267 80.1912 23.506 80.1258 23.562C80.0698 23.6273 79.9905 23.66 79.8878 23.66H78.6978ZM81.8618 19.642C82.8698 19.642 83.4065 19.0213 83.4718 17.78C83.4812 17.6867 83.4858 17.5467 83.4858 17.36C83.4858 17.1733 83.4812 17.0333 83.4718 16.94C83.4065 15.6987 82.8698 15.078 81.8618 15.078C81.3205 15.078 80.9192 15.2507 80.6578 15.596C80.3965 15.9413 80.2518 16.366 80.2238 16.87L80.2098 17.402L80.2238 17.948C80.2425 18.4147 80.3872 18.816 80.6578 19.152C80.9378 19.4787 81.3392 19.642 81.8618 19.642ZM89.0614 21.14C88.5854 21.14 88.1468 21.0467 87.7454 20.86C87.3534 20.664 87.0408 20.4027 86.8074 20.076C86.5834 19.7493 86.4714 19.39 86.4714 18.998C86.4714 18.3633 86.7281 17.85 87.2414 17.458C87.7548 17.066 88.4594 16.8 89.3554 16.66L91.2734 16.38V16.086C91.2734 15.6753 91.1708 15.3673 90.9654 15.162C90.7601 14.9567 90.4288 14.854 89.9714 14.854C89.6634 14.854 89.4114 14.9147 89.2154 15.036C89.0288 15.148 88.8794 15.26 88.7674 15.372C88.6554 15.4933 88.5808 15.5727 88.5434 15.61C88.5061 15.722 88.4361 15.778 88.3334 15.778H87.2554C87.1714 15.778 87.0968 15.75 87.0314 15.694C86.9754 15.638 86.9474 15.5633 86.9474 15.47C86.9568 15.2367 87.0688 14.9707 87.2834 14.672C87.5074 14.3733 87.8481 14.1167 88.3054 13.902C88.7628 13.6873 89.3228 13.58 89.9854 13.58C91.0868 13.58 91.8894 13.8273 92.3934 14.322C92.8974 14.8167 93.1494 15.4653 93.1494 16.268V20.664C93.1494 20.7573 93.1168 20.8367 93.0514 20.902C92.9954 20.9673 92.9161 21 92.8134 21H91.6794C91.5861 21 91.5068 20.9673 91.4414 20.902C91.3761 20.8367 91.3434 20.7573 91.3434 20.664V20.118C91.1381 20.4167 90.8441 20.664 90.4614 20.86C90.0881 21.0467 89.6214 21.14 89.0614 21.14ZM89.5374 19.81C90.0508 19.81 90.4708 19.642 90.7974 19.306C91.1241 18.97 91.2874 18.48 91.2874 17.836V17.542L89.8874 17.766C89.3461 17.85 88.9354 17.9853 88.6554 18.172C88.3848 18.3587 88.2494 18.5873 88.2494 18.858C88.2494 19.1567 88.3754 19.39 88.6274 19.558C88.8794 19.726 89.1828 19.81 89.5374 19.81ZM95.2815 21C95.1882 21 95.1088 20.9673 95.0435 20.902C94.9782 20.8367 94.9455 20.7573 94.9455 20.664V14.056C94.9455 13.9627 94.9782 13.8833 95.0435 13.818C95.1088 13.7527 95.1882 13.72 95.2815 13.72H96.4435C96.5462 13.72 96.6255 13.7527 96.6815 13.818C96.7468 13.874 96.7795 13.9533 96.7795 14.056V16.562H99.9435V14.056C99.9435 13.9533 99.9762 13.874 100.041 13.818C100.107 13.7527 100.186 13.72 100.279 13.72H101.441C101.544 13.72 101.623 13.7527 101.679 13.818C101.745 13.874 101.777 13.9533 101.777 14.056V20.664C101.777 20.7573 101.745 20.8367 101.679 20.902C101.623 20.9673 101.544 21 101.441 21H100.279C100.186 21 100.107 20.9673 100.041 20.902C99.9762 20.8367 99.9435 20.7573 99.9435 20.664V18.032H96.7795V20.664C96.7795 20.7573 96.7468 20.8367 96.6815 20.902C96.6255 20.9673 96.5462 21 96.4435 21H95.2815ZM106.818 21.14C105.791 21.14 104.97 20.8553 104.354 20.286C103.747 19.7167 103.425 18.928 103.388 17.92L103.374 17.36L103.388 16.8C103.425 15.792 103.747 15.0033 104.354 14.434C104.97 13.8647 105.791 13.58 106.818 13.58C107.546 13.58 108.162 13.7107 108.666 13.972C109.179 14.2333 109.557 14.5553 109.8 14.938C110.052 15.3113 110.187 15.666 110.206 16.002C110.215 16.0953 110.183 16.1747 110.108 16.24C110.043 16.3053 109.963 16.338 109.87 16.338H108.638C108.545 16.338 108.47 16.3193 108.414 16.282C108.367 16.2353 108.321 16.1607 108.274 16.058C108.134 15.694 107.947 15.4327 107.714 15.274C107.49 15.1153 107.201 15.036 106.846 15.036C106.37 15.036 105.997 15.19 105.726 15.498C105.455 15.7967 105.311 16.254 105.292 16.87L105.278 17.388L105.292 17.85C105.329 19.0727 105.847 19.684 106.846 19.684C107.21 19.684 107.504 19.6047 107.728 19.446C107.952 19.2873 108.134 19.026 108.274 18.662C108.321 18.5593 108.367 18.4893 108.414 18.452C108.47 18.4053 108.545 18.382 108.638 18.382H109.87C109.963 18.382 110.043 18.4147 110.108 18.48C110.183 18.5453 110.215 18.6247 110.206 18.718C110.187 19.0447 110.057 19.3947 109.814 19.768C109.571 20.1413 109.198 20.4633 108.694 20.734C108.19 21.0047 107.565 21.14 106.818 21.14ZM112.002 21C111.909 21 111.83 20.9673 111.764 20.902C111.699 20.8367 111.666 20.7573 111.666 20.664V14.056C111.666 13.9627 111.699 13.8833 111.764 13.818C111.83 13.7527 111.909 13.72 112.002 13.72H117.994C118.097 13.72 118.176 13.7527 118.232 13.818C118.298 13.874 118.33 13.9533 118.33 14.056V20.664C118.33 20.7573 118.298 20.8367 118.232 20.902C118.176 20.9673 118.097 21 117.994 21H116.832C116.739 21 116.66 20.9673 116.594 20.902C116.529 20.8367 116.496 20.7573 116.496 20.664V15.204H113.5V20.664C113.5 20.7573 113.468 20.8367 113.402 20.902C113.346 20.9673 113.267 21 113.164 21H112.002ZM123.445 21.14C122.353 21.14 121.508 20.86 120.911 20.3C120.313 19.7307 119.991 18.956 119.945 17.976L119.931 17.36L119.945 16.744C119.991 15.7733 120.318 15.0033 120.925 14.434C121.531 13.8647 122.371 13.58 123.445 13.58C124.518 13.58 125.358 13.8647 125.965 14.434C126.571 15.0033 126.898 15.7733 126.945 16.744C126.954 16.856 126.959 17.0613 126.959 17.36C126.959 17.6587 126.954 17.864 126.945 17.976C126.898 18.956 126.576 19.7307 125.979 20.3C125.381 20.86 124.537 21.14 123.445 21.14ZM123.445 19.754C123.939 19.754 124.322 19.6 124.593 19.292C124.863 18.9747 125.013 18.5127 125.041 17.906C125.05 17.8127 125.055 17.6307 125.055 17.36C125.055 17.0893 125.05 16.9073 125.041 16.814C125.013 16.2073 124.863 15.75 124.593 15.442C124.322 15.1247 123.939 14.966 123.445 14.966C122.95 14.966 122.567 15.1247 122.297 15.442C122.026 15.75 121.877 16.2073 121.849 16.814L121.835 17.36L121.849 17.906C121.877 18.5127 122.026 18.9747 122.297 19.292C122.567 19.6 122.95 19.754 123.445 19.754ZM128.86 23.66C128.767 23.66 128.687 23.6273 128.622 23.562C128.557 23.506 128.524 23.4267 128.524 23.324V14.056C128.524 13.9533 128.557 13.874 128.622 13.818C128.687 13.7527 128.767 13.72 128.86 13.72H129.966C130.069 13.72 130.148 13.7527 130.204 13.818C130.269 13.874 130.302 13.9533 130.302 14.056V14.616C130.825 13.9253 131.571 13.58 132.542 13.58C133.485 13.58 134.208 13.8787 134.712 14.476C135.216 15.064 135.487 15.862 135.524 16.87C135.533 16.982 135.538 17.1453 135.538 17.36C135.538 17.584 135.533 17.752 135.524 17.864C135.487 18.844 135.216 19.6373 134.712 20.244C134.208 20.8413 133.485 21.14 132.542 21.14C131.599 21.14 130.881 20.8087 130.386 20.146V23.324C130.386 23.4267 130.353 23.506 130.288 23.562C130.232 23.6273 130.153 23.66 130.05 23.66H128.86ZM132.024 19.642C133.032 19.642 133.569 19.0213 133.634 17.78C133.643 17.6867 133.648 17.5467 133.648 17.36C133.648 17.1733 133.643 17.0333 133.634 16.94C133.569 15.6987 133.032 15.078 132.024 15.078C131.483 15.078 131.081 15.2507 130.82 15.596C130.559 15.9413 130.414 16.366 130.386 16.87L130.372 17.402L130.386 17.948C130.405 18.4147 130.549 18.816 130.82 19.152C131.1 19.4787 131.501 19.642 132.024 19.642ZM139.336 21C139.242 21 139.163 20.9673 139.098 20.902C139.032 20.8367 139 20.7573 139 20.664V15.204H136.718C136.624 15.204 136.545 15.1713 136.48 15.106C136.414 15.0407 136.382 14.9567 136.382 14.854V14.056C136.382 13.9533 136.414 13.874 136.48 13.818C136.545 13.7527 136.624 13.72 136.718 13.72H143.074C143.176 13.72 143.26 13.7527 143.326 13.818C143.391 13.8833 143.424 13.9627 143.424 14.056V14.854C143.424 14.9473 143.391 15.0313 143.326 15.106C143.26 15.1713 143.176 15.204 143.074 15.204H140.806V20.664C140.806 20.7573 140.773 20.8367 140.708 20.902C140.652 20.9673 140.572 21 140.47 21H139.336Z" fill="#0072BC"/>
<circle cx="171" cy="17" r="17" fill="#0072BC"/>
<rect x="170.15" y="11.05" width="1.7" height="11.9" rx="0.85" fill="white"/>
<rect x="165.05" y="17.85" width="1.7" height="11.9" rx="0.85" transform="rotate(-90 165.05 17.85)" fill="white"/>
</svg>
