<svg width="34" height="34" fill="none" xmlns="http://www.w3.org/2000/svg"><path d="M29.022 4.978A16.888 16.888 0 0017 0 16.89 16.89 0 004.978 4.978 16.887 16.887 0 000 17c0 4.54 1.766 8.81 4.978 12.022A16.888 16.888 0 0017 34c4.54 0 8.81-1.766 12.022-4.978A16.888 16.888 0 0034 17c0-4.54-1.766-8.81-4.978-12.022zM17 32.123C8.663 32.123 1.877 25.337 1.877 17S8.663 1.877 17 1.877 32.123 8.663 32.123 17 25.337 32.123 17 32.123z" fill="#fff"/><path d="M17 14.128a4.429 4.429 0 004.422-4.422c0-2.433-1.981-4.429-4.422-4.429A4.429 4.429 0 0012.578 9.7c0 2.434 1.982 4.43 4.422 4.43zm0-6.973A2.546 2.546 0 1114.455 9.7 2.546 2.546 0 0117 7.154zm6.703 12.348c-1.55-2.28-3.803-3.442-6.703-3.442-2.9 0-5.152 1.154-6.702 3.442-1.155 1.697-1.892 4.012-2.184 6.863-.055.514.32.98.835 1.029a.933.933 0 001.029-.835c.59-5.722 2.955-8.621 7.022-8.621 4.068 0 6.432 2.899 7.023 8.621a.94.94 0 00.931.842c.035 0 .063 0 .098-.007a.937.937 0 00.834-1.03c-.292-2.857-1.029-5.165-2.183-6.862z" fill="#fff"/></svg>