<svg width="10" height="10" viewBox="0 0 10 10" fill="none" xmlns="http://www.w3.org/2000/svg">
<path d="M0.159839 2.54039L0.487403 2.21054C0.590493 2.10754 0.727648 2.05079 0.874234 2.05079C1.02074 2.05079 1.15806 2.10754 1.26115 2.21054L4.99776 5.94732L8.73869 2.2064C8.84162 2.10339 8.97893 2.04672 9.12544 2.04672C9.27195 2.04672 9.40934 2.10339 9.51235 2.2064L9.84 2.53421C10.0533 2.74738 10.0533 3.09462 9.84 3.30779L5.38598 7.77783C5.28305 7.88075 5.1459 7.95327 4.99809 7.95327H4.99638C4.8498 7.95327 4.71264 7.88067 4.60971 7.77783L0.159839 3.3199C0.0567484 3.21698 0.000163078 3.07567 0 2.92917C0 2.78258 0.0567484 2.64323 0.159839 2.54039Z" fill="#888888"/>
</svg>
