<svg width="24" height="16" viewBox="0 0 24 16" fill="none" xmlns="http://www.w3.org/2000/svg">
<path d="M12.0007 0.84668C16.5862 0.84668 20.7445 3.35542 23.8129 7.43029C24.0633 7.76414 24.0633 8.23054 23.8129 8.56438C20.7445 12.6442 16.5862 15.1529 12.0007 15.1529C7.41528 15.1529 3.25695 12.6442 0.18852 8.56929C-0.0618629 8.23545 -0.0618629 7.76905 0.18852 7.4352C3.25695 3.35543 7.41528 0.84668 12.0007 0.84668ZM11.6718 13.0369C14.7157 13.2284 17.2293 10.7196 17.0379 7.67086C16.8808 5.1572 14.8433 3.11977 12.3297 2.96267C9.28579 2.7712 6.77213 5.27994 6.9636 8.32873C7.12562 10.8375 9.16305 12.8749 11.6718 13.0369ZM11.824 10.7098C13.4638 10.8129 14.8188 9.46282 14.7108 7.82305C14.6273 6.46804 13.5276 5.37322 12.1726 5.28485C10.5328 5.18175 9.17778 6.53186 9.28579 8.17163C9.37416 9.53155 10.4739 10.6264 11.824 10.7098Z" fill="#C4C4C4"/>
</svg>
