<svg width="34" height="40" viewBox="0 0 34 40" fill="none" xmlns="http://www.w3.org/2000/svg">
<path d="M22.8333 0H31.1666C32.545 0 33.6666 1.12164 33.6666 2.5V37.5C33.6666 38.8784 32.545 40 31.1666 40H22.8333C21.4549 40 20.3333 38.8784 20.3333 37.5V2.5C20.3333 1.12164 21.455 0 22.8333 0Z" fill="#0072BC"/>
<path d="M2.83335 0H11.1666C12.545 0 13.6666 1.12164 13.6666 2.5V37.5C13.6666 38.8784 12.545 40 11.1666 40H2.83327C1.45491 40 0.333267 38.8784 0.333267 37.5V2.5C0.333345 1.12164 1.45499 0 2.83335 0Z" fill="#0072BC"/>
</svg>
