<svg width="28" height="28" viewBox="0 0 28 28" fill="none" xmlns="http://www.w3.org/2000/svg">
<g clip-path="url(#clip0)">
<path d="M7.50458 5.85087V1.65179C7.50458 0.744096 6.76414 0 5.85523 0H1.65614C0.749467 0 0.00537109 0.744096 0.00537109 1.65179V5.85087C0.00537109 6.75674 0.749467 7.50266 1.65594 7.50266H5.85503C6.76414 7.50266 7.50458 6.75694 7.50458 5.85087Z" fill="white"/>
<path d="M16.8326 5.85087V1.65179C16.8326 0.744096 16.0921 0 15.1838 0H10.9858C10.0781 0 9.33398 0.744096 9.33398 1.65179V5.85087C9.33398 6.75674 10.0781 7.50266 10.9858 7.50266H15.1836C16.0921 7.50266 16.8326 6.75694 16.8326 5.85087Z" fill="white"/>
<path d="M26.1614 5.85087V1.65179C26.1614 0.743893 25.4222 0 24.5127 0H20.3142C19.4082 0 18.6641 0.744096 18.6641 1.65179V5.85087C18.6641 6.75674 19.4082 7.50266 20.3142 7.50266H24.5127C25.4222 7.50266 26.1614 6.75694 26.1614 5.85087Z" fill="white"/>
<path d="M7.50438 15.1844V10.9855C7.50438 10.0776 6.76414 9.33374 5.85503 9.33374H1.65594C0.749467 9.33374 0.00537109 10.0766 0.00537109 10.9855V15.1846C0.00537109 16.0893 0.749467 16.836 1.65594 16.836H5.85503C6.76394 16.8358 7.50438 16.0891 7.50438 15.1844Z" fill="white"/>
<path d="M16.8326 15.1844V10.9855C16.8326 10.0776 16.0923 9.33374 15.1838 9.33374H10.9858C10.0781 9.33374 9.33398 10.0766 9.33398 10.9855V15.1846C9.33398 16.0893 10.0781 16.836 10.9858 16.836H15.1836C16.0921 16.8358 16.8326 16.0891 16.8326 15.1844Z" fill="white"/>
<path d="M26.1614 15.1844V10.9855C26.1614 10.0776 25.4222 9.33374 24.5127 9.33374H20.3142C19.4082 9.33374 18.6641 10.0766 18.6641 10.9855V15.1846C18.6641 16.0893 19.4082 16.836 20.3142 16.836H24.5127C25.4222 16.8358 26.1614 16.0891 26.1614 15.1844Z" fill="white"/>
<path d="M7.50438 24.5171V20.3187C7.50438 19.4114 6.76414 18.6675 5.85503 18.6675H1.65594C0.749467 18.6675 0.00537109 19.4114 0.00537109 20.3187V24.5171C0.00537109 25.4232 0.749467 26.1697 1.65594 26.1697H5.85503C6.76394 26.1695 7.50438 25.4218 7.50438 24.5171Z" fill="white"/>
<path d="M16.8326 24.5171V20.3187C16.8326 19.4114 16.0923 18.6675 15.1838 18.6675H10.9858C10.0781 18.6675 9.33398 19.4114 9.33398 20.3187V24.5171C9.33398 25.4232 10.0781 26.1697 10.9858 26.1697H15.1836C16.0921 26.1695 16.8326 25.4218 16.8326 24.5171Z" fill="white"/>
<path d="M27.9945 26.3477V22.149C27.9945 21.2419 27.2542 20.4966 26.3457 20.4966H22.1472C21.2399 20.4966 20.4946 21.2405 20.4946 22.149V26.3477C20.4946 27.2535 21.2399 28.0001 22.1472 28.0001H26.3457C27.254 28.0001 27.9945 27.2535 27.9945 26.3477Z" fill="white"/>
</g>
<defs>
<clipPath id="clip0">
<rect width="28" height="28" fill="white"/>
</clipPath>
</defs>
</svg>
