<svg width="20" height="20" fill="none" xmlns="http://www.w3.org/2000/svg"><g clip-path="url(#clip0)" fill="#888"><path d="M16.693 10.83a.318.318 0 00-.145-.037.38.38 0 00-.276.12l-.77.77a.36.36 0 00-.108.265v3.054c0 .53-.188.982-.565 1.36-.377.376-.83.565-1.36.565H3.465c-.53 0-.983-.189-1.36-.566a1.853 1.853 0 01-.565-1.359V4.997c0-.53.189-.982.566-1.36.376-.376.83-.565 1.359-.565H13.47c.176 0 .356.024.54.073a.386.386 0 00.109.024.38.38 0 00.277-.12l.589-.59a.374.374 0 00.108-.348.365.365 0 00-.217-.277 3.31 3.31 0 00-1.407-.3H3.464c-.954 0-1.77.338-2.448 1.016A3.336 3.336 0 000 4.997v10.006c0 .954.339 1.77 1.016 2.447a3.336 3.336 0 002.448 1.017H13.47c.954 0 1.77-.34 2.447-1.017a3.336 3.336 0 001.016-2.447v-3.825c0-.168-.08-.284-.24-.348z"/><path d="M19.711 3.927l-1.323-1.324a.937.937 0 00-.685-.288.936.936 0 00-.686.288l-7.78 7.782-3.164-3.163a.936.936 0 00-.685-.289.936.936 0 00-.686.289L3.38 8.545a.937.937 0 00-.288.685c0 .265.096.493.288.686l5.172 5.171a.936.936 0 00.685.289.936.936 0 00.686-.289l9.79-9.79A.937.937 0 0020 4.613a.936.936 0 00-.289-.685z"/></g><defs><clipPath id="clip0"><path fill="#fff" d="M0 0h20v20H0z"/></clipPath></defs></svg>