<svg width="20" height="20" fill="none" xmlns="http://www.w3.org/2000/svg"><path d="M17.272 5.664c.413 0 .7-.418.545-.801a3.717 3.717 0 00-3.442-2.324h-.72C13.388 1.122 12.146 0 10.626 0h-1.25c-1.52 0-2.762 1.121-3.03 2.54h-.72a3.717 3.717 0 00-3.442 2.323.585.585 0 00.545.801h14.544zM9.375 1.172h1.25a1.92 1.92 0 011.826 1.367H7.55a1.922 1.922 0 011.826-1.367zM4.338 18.367A1.764 1.764 0 006.091 20h7.818c.918 0 1.688-.717 1.753-1.633l.821-11.531H3.517l.821 11.531zm7.264-8.396a.586.586 0 011.17.058l-.312 6.25a.586.586 0 11-1.17-.058l.312-6.25zm-3.819-.556a.586.586 0 01.615.556l.312 6.25a.586.586 0 01-1.17.058l-.313-6.25a.586.586 0 01.556-.614z" fill="#888"/></svg>