<svg width="34" height="34" fill="none" xmlns="http://www.w3.org/2000/svg"><path d="M21.914 9.96a2.327 2.327 0 01-2.324-2.323V0H7.703a3.656 3.656 0 00-3.652 3.652v26.696A3.656 3.656 0 007.703 34h18.594a3.656 3.656 0 003.652-3.652V9.96h-8.035zM9.496 23.907h4.83a.996.996 0 010 1.992h-4.83a.996.996 0 110-1.992zM8.5 19.59c0-.55.446-.996.996-.996h14.61a.996.996 0 110 1.992H9.495a.996.996 0 01-.996-.996zm15.605-6.309a.996.996 0 010 1.992H9.496a.996.996 0 110-1.992h14.61z" fill="#fff"/><path d="M21.582 7.637c0 .183.149.332.332.332h7.591a3.644 3.644 0 00-.698-.912L22.404.999a3.662 3.662 0 00-.822-.586v7.224z" fill="#fff"/></svg>