<svg width="28" height="28" fill="none" xmlns="http://www.w3.org/2000/svg"><g clip-path="url(#clip0)" fill="#fff"><path d="M7.505 5.85V1.653C7.505.744 6.765 0 5.855 0H1.656C.75 0 .006.744.006 1.652V5.85c0 .906.743 1.652 1.65 1.652h4.199c.91 0 1.65-.746 1.65-1.652zm9.328 0V1.653c0-.908-.74-1.652-1.65-1.652h-4.197c-.908 0-1.652.744-1.652 1.652V5.85c0 .906.744 1.652 1.652 1.652h4.198c.908 0 1.649-.746 1.649-1.652zm9.328 0V1.653C26.161.744 25.422 0 24.513 0h-4.199c-.906 0-1.65.744-1.65 1.652V5.85c0 .906.744 1.652 1.65 1.652h4.199c.91 0 1.648-.746 1.648-1.652zM7.504 15.184v-4.198c0-.908-.74-1.652-1.649-1.652h-4.2c-.906 0-1.65.743-1.65 1.652v4.199c0 .904.744 1.651 1.65 1.651h4.2c.909 0 1.65-.747 1.65-1.652zm9.329 0v-4.198c0-.908-.74-1.652-1.65-1.652h-4.197c-.908 0-1.652.743-1.652 1.652v4.199a1.66 1.66 0 001.652 1.651h4.198c.908 0 1.649-.747 1.649-1.652zm9.328 0v-4.198c0-.908-.739-1.652-1.648-1.652h-4.199c-.906 0-1.65.743-1.65 1.652v4.199c0 .904.744 1.651 1.65 1.651h4.199c.91 0 1.648-.747 1.648-1.652zM7.504 24.517V20.32c0-.908-.74-1.651-1.649-1.651h-4.2c-.906 0-1.65.743-1.65 1.65v4.2a1.66 1.66 0 001.65 1.652h4.2c.909 0 1.65-.748 1.65-1.653zm9.329 0V20.32c0-.908-.74-1.651-1.65-1.651h-4.197c-.908 0-1.652.743-1.652 1.65v4.2a1.66 1.66 0 001.652 1.652h4.198c.908 0 1.649-.748 1.649-1.653zm11.161 1.831v-4.199c0-.907-.74-1.652-1.648-1.652h-4.199c-.907 0-1.652.744-1.652 1.652v4.199A1.66 1.66 0 0022.147 28h4.199c.908 0 1.648-.747 1.648-1.652z"/></g><defs><clipPath id="clip0"><path fill="#fff" d="M0 0h28v28H0z"/></clipPath></defs></svg>