<svg width="34" height="34" fill="none" xmlns="http://www.w3.org/2000/svg"><g clip-path="url(#clip0)"><path d="M17 .85C7.626.85 0 7.713 0 16.15c0 2.949.933 5.806 2.702 8.276-.335 3.704-1.233 6.454-2.536 7.757a.566.566 0 00.48.961c.229-.032 5.56-.8 9.416-3.025A18.446 18.446 0 0017 31.45c9.374 0 17-6.863 17-15.3C34 7.713 26.374.85 17 .85zM9.067 18.417A2.269 2.269 0 016.8 16.15a2.269 2.269 0 012.267-2.267 2.269 2.269 0 012.266 2.267 2.269 2.269 0 01-2.266 2.267zm7.933 0a2.269 2.269 0 01-2.267-2.267A2.269 2.269 0 0117 13.883a2.269 2.269 0 012.267 2.267A2.269 2.269 0 0117 18.417zm7.933 0a2.269 2.269 0 01-2.266-2.267 2.269 2.269 0 012.266-2.267A2.269 2.269 0 0127.2 16.15a2.269 2.269 0 01-2.267 2.267z" fill="#fff"/></g><defs><clipPath id="clip0"><path fill="#fff" d="M0 0h34v34H0z"/></clipPath></defs></svg>