<svg width="24" height="16" fill="none" xmlns="http://www.w3.org/2000/svg"><path d="M12 .847c4.586 0 8.744 2.508 11.813 6.583.25.334.25.8 0 1.134-3.069 4.08-7.227 6.589-11.812 6.589-4.586 0-8.744-2.509-11.812-6.584a.95.95 0 010-1.134C3.257 3.355 7.415.847 12 .847zm-.328 12.19a5.05 5.05 0 005.366-5.366c-.157-2.514-2.195-4.551-4.708-4.708a5.05 5.05 0 00-5.366 5.366c.162 2.508 2.199 4.546 4.708 4.708zm.152-2.327a2.714 2.714 0 002.887-2.887 2.73 2.73 0 00-2.538-2.538 2.714 2.714 0 00-2.887 2.887 2.73 2.73 0 002.538 2.538z" fill="#C4C4C4"/></svg>