<svg width="34" height="28" fill="none" xmlns="http://www.w3.org/2000/svg"><path d="M29.935 5.13h-3.548L24.43 2.174C23.689 1.065 22.396.4 21.066.4h-8.13c-1.331 0-2.625.665-3.364 1.774L7.613 5.13H4.066A4.054 4.054 0 000 9.196v14.339A4.054 4.054 0 004.066 27.6h25.87A4.054 4.054 0 0034 23.535V9.195a4.054 4.054 0 00-4.065-4.065zM17 24.274a9.164 9.164 0 01-9.165-9.165c0-5.063 4.102-9.129 9.165-9.129a9.164 9.164 0 019.166 9.166c0 5.026-4.103 9.128-9.166 9.128zm12.418-13.415h-1.626a1.2 1.2 0 01-1.146-1.257 1.203 1.203 0 011.146-1.146h1.478a1.2 1.2 0 011.256 1.146 1.17 1.17 0 01-1.108 1.257z" fill="#656565"/></svg>