<svg width="27" height="26" fill="none" xmlns="http://www.w3.org/2000/svg"><path d="M13.5 0C9.146 0 5.604 3.41 5.604 7.604v4.342c0 .05-.063.133-.113.149-.427.137-.774.255-1.091.373-.379.14-.664.545-.664.94v9.978c0 .393.284.797.66.94A25.442 25.442 0 0013.5 26c3.13 0 6.194-.563 9.104-1.674.377-.143.66-.547.66-.94v-9.978c0-.395-.285-.8-.664-.94a25.804 25.804 0 00-1.091-.374c-.05-.015-.113-.099-.113-.148V7.603C21.396 3.411 17.854 0 13.5 0zm-2.15 16.447c0-1.145.962-2.07 2.15-2.07s2.15.925 2.15 2.07c0 .758-.444 1.393-1.075 1.753v3.424c0 .573-.48 1.036-1.075 1.036s-1.075-.463-1.075-1.036V18.2c-.631-.36-1.076-.995-1.076-1.753zm7.331-8.844v3.747a25.595 25.595 0 00-10.362 0V7.603c0-2.75 2.324-4.989 5.18-4.989 2.858 0 5.182 2.238 5.182 4.99z" fill="#BCBCBC"/></svg>