<svg width="34" height="34" fill="none" xmlns="http://www.w3.org/2000/svg"><g clip-path="url(#clip0)" fill="#656565"><path d="M29.935 8.13h-3.548L24.43 5.174C23.69 4.065 22.397 3.4 21.067 3.4h-8.13c-1.331 0-2.625.665-3.364 1.774L7.613 8.13H4.066A4.054 4.054 0 000 12.196v14.339A4.054 4.054 0 004.066 30.6h25.87A4.054 4.054 0 0034 26.535v-14.34a4.054 4.054 0 00-4.065-4.065zM17 27.274a9.164 9.164 0 01-9.165-9.165c0-5.063 4.102-9.129 9.165-9.129a9.164 9.164 0 019.166 9.166c0 5.026-4.103 9.128-9.166 9.128zm12.418-13.415h-1.626a1.2 1.2 0 01-1.146-1.257 1.203 1.203 0 011.146-1.146h1.478a1.2 1.2 0 011.256 1.146 1.17 1.17 0 01-1.108 1.257z"/><path d="M17 13.046a5.11 5.11 0 00-5.1 5.1c0 2.808 2.292 5.063 5.1 5.063a5.11 5.11 0 005.1-5.1c0-2.809-2.291-5.063-5.1-5.063z"/></g><defs><clipPath id="clip0"><path fill="#fff" d="M0 0h34v34H0z"/></clipPath></defs></svg>