<svg width="20" height="20" fill="none" xmlns="http://www.w3.org/2000/svg"><g clip-path="url(#clip0)"><path d="M13.357 2.289c-3.051-3.052-8.017-3.052-11.068 0-3.05 3.051-3.05 8.016 0 11.068 2.717 2.716 6.948 3.007 9.997.886.065.304.211.593.447.83l4.444 4.443a1.652 1.652 0 002.338 0 1.65 1.65 0 000-2.338l-4.443-4.445a1.654 1.654 0 00-.83-.446c2.123-3.05 1.832-7.28-.885-9.998zm-1.403 9.665a5.85 5.85 0 01-8.262 0 5.851 5.851 0 010-8.262 5.85 5.85 0 018.262 0 5.849 5.849 0 010 8.262z" fill="#888"/></g><defs><clipPath id="clip0"><path fill="#fff" d="M0 0h20v20H0z"/></clipPath></defs></svg>