<svg width="16" height="16" fill="none" xmlns="http://www.w3.org/2000/svg"><path d="M14.5 12.75a.25.25 0 00.25-.25v-1a.25.25 0 00-.25-.25h-1v-3.5a5.5 5.5 0 00-11 0v3.5h-1a.25.25 0 00-.25.25v1a.25.25 0 00.25.25h.25v1.5H1.5a.25.25 0 00-.25.25v1a.25.25 0 00.25.25h13a.25.25 0 00.25-.25v-1a.25.25 0 00-.25-.25h-.25v-1.5h.25zm-4.396 1.5l1.5-1.5h1.793l-1.5 1.5h-1.793zm-4.207-1.5l-1.5 1.5H2.604l1.5-1.5h1.793zm.707 0h1.793l-1.5 1.5H5.104l1.5-1.5zm2.5 0h1.793l-1.5 1.5H7.604l1.5-1.5zM3 7.75a5 5 0 1110 0v3.5H8.75V8.579a1.75 1.75 0 10-1.5 0v2.671H3v-3.5zm5 .5a1.25 1.25 0 110-2.5 1.25 1.25 0 010 2.5zm0 .5c.084 0 .167-.007.25-.02v2.52h-.5V8.73c.083.013.166.02.25.02zm-6.25 3h12.5v.5H1.75v-.5zm1.647 1L2.25 13.896V12.75h1.147zm10.853 2.5H1.75v-.5h12.5v.5zm-1.646-1l1.146-1.146v1.146h-1.146zM7.75.25h.5v1.5h-.5V.25z" fill="#ED131A"/><path d="M10.322 2.074l1.25-1.25.354.354-1.25 1.25-.354-.354zm-6.249-.897l.353-.353 1.25 1.25-.353.353-1.25-1.25zM12 7.75h.5A4.505 4.505 0 008 3.25v.5a4.005 4.005 0 014 4zm0 .5h.5v.5H12v-.5z" fill="#ED131A"/></svg>