<svg width="188" height="34" fill="none" xmlns="http://www.w3.org/2000/svg"><path d="M.7 22.946a.341.341 0 01-.252-.098c-.056-.056-.084-.135-.084-.238v-3.024c0-.103.033-.182.098-.238A.324.324 0 01.7 19.25h.28c.439 0 .76-.401.966-1.204.205-.812.308-2.007.308-3.584v-2.926c0-.103.033-.182.098-.238a.324.324 0 01.238-.098h6.006c.103 0 .187.033.252.098s.098.15.098.252v7.7h.672c.103 0 .187.033.252.098a.324.324 0 01.098.238v3.024a.324.324 0 01-.098.238.341.341 0 01-.252.098h-1.26a.324.324 0 01-.238-.098.296.296 0 01-.098-.238V21H2.31v1.61a.296.296 0 01-.098.238.341.341 0 01-.252.098H.7zM7 19.25v-6.3H4.13v1.764c0 1.148-.065 2.09-.196 2.828-.121.737-.313 1.307-.574 1.708H7zm7.576 1.89c-1.092 0-1.937-.28-2.534-.84-.598-.57-.92-1.344-.966-2.324l-.014-.616.014-.616c.046-.97.373-1.74.98-2.31.606-.57 1.446-.854 2.52-.854 1.073 0 1.913.285 2.52.854.606.57.933 1.34.98 2.31.009.112.014.317.014.616s-.005.504-.014.616c-.047.98-.369 1.755-.966 2.324-.598.56-1.442.84-2.534.84zm0-1.386c.494 0 .877-.154 1.148-.462.27-.317.42-.78.448-1.386a6.9 6.9 0 00.014-.546c0-.27-.005-.453-.014-.546-.028-.607-.178-1.064-.448-1.372-.271-.317-.654-.476-1.148-.476-.495 0-.878.159-1.148.476-.271.308-.42.765-.448 1.372l-.014.546.014.546c.028.607.177 1.069.448 1.386.27.308.653.462 1.148.462zm11.855-2.562c.01.103.014.261.014.476 0 .205-.005.355-.014.448-.047.933-.369 1.67-.966 2.212-.588.541-1.433.812-2.534.812-1.158 0-2.02-.299-2.59-.896-.56-.607-.864-1.498-.91-2.674l-.014-.84.014-.84c.028-1.325.233-2.32.616-2.982a3.306 3.306 0 011.666-1.456c.728-.308 1.904-.658 3.528-1.05l.07-.014c.075 0 .145.028.21.084a.266.266 0 01.112.196l.182.924.014.084a.3.3 0 01-.07.196.382.382 0 01-.182.098l-.448.098c-1.11.252-1.909.467-2.394.644-.476.168-.84.43-1.092.784-.252.355-.397.887-.434 1.596.224-.28.518-.504.882-.672a2.834 2.834 0 011.176-.252c.98 0 1.74.27 2.282.812.541.541.835 1.279.882 2.212zm-1.904.854c.01-.065.014-.187.014-.364 0-.196-.005-.336-.014-.42-.019-.579-.159-1.022-.42-1.33-.261-.317-.616-.476-1.064-.476-.514 0-.92.159-1.218.476-.299.308-.457.751-.476 1.33l-.014.42.014.364c.018.588.163 1.036.434 1.344.27.308.653.462 1.148.462.494 0 .877-.15 1.148-.448.28-.308.43-.76.448-1.358zm5.581 3.094c-.476 0-.914-.093-1.316-.28a2.502 2.502 0 01-.938-.784 1.866 1.866 0 01-.336-1.078c0-.635.257-1.148.77-1.54.514-.392 1.218-.658 2.114-.798l1.918-.28v-.294c0-.41-.102-.719-.308-.924-.205-.205-.536-.308-.994-.308-.308 0-.56.06-.756.182a2.326 2.326 0 00-.448.336c-.112.121-.186.2-.224.238-.037.112-.107.168-.21.168h-1.078a.334.334 0 01-.224-.084.303.303 0 01-.084-.224c.01-.233.122-.5.336-.798.224-.299.565-.555 1.022-.77.458-.215 1.018-.322 1.68-.322 1.102 0 1.904.247 2.408.742s.756 1.143.756 1.946v4.396a.324.324 0 01-.098.238.296.296 0 01-.238.098h-1.134a.324.324 0 01-.238-.098.324.324 0 01-.098-.238v-.546c-.205.299-.499.546-.882.742-.373.187-.84.28-1.4.28zm.476-1.33c.514 0 .934-.168 1.26-.504.327-.336.49-.826.49-1.47v-.294l-1.4.224c-.541.084-.952.22-1.232.406-.27.187-.406.415-.406.686 0 .299.126.532.378.7.252.168.556.252.91.252zM36.328 21a.324.324 0 01-.238-.098.324.324 0 01-.098-.238v-6.608c0-.093.033-.173.098-.238a.324.324 0 01.238-.098h3.108c.962 0 1.685.177 2.17.532.495.355.742.85.742 1.484 0 .373-.07.672-.21.896-.14.215-.35.406-.63.574.327.15.579.373.756.672.187.299.28.635.28 1.008 0 .681-.252 1.204-.756 1.568-.504.364-1.236.546-2.198.546h-3.262zm3.08-4.312c.374 0 .668-.075.882-.224.215-.159.322-.387.322-.686 0-.29-.102-.495-.308-.616-.205-.121-.504-.182-.896-.182h-1.624v1.708h1.624zm.056 3.052c.383 0 .682-.07.896-.21.224-.15.336-.369.336-.658 0-.308-.102-.532-.308-.672-.196-.14-.504-.21-.924-.21h-1.68v1.75h1.68zm11.327-6.02a.31.31 0 01.224.098.265.265 0 01.097.21v6.636a.324.324 0 01-.098.238.324.324 0 01-.238.098h-1.162a.324.324 0 01-.237-.098.324.324 0 01-.099-.238V16.17l-3.36 4.606a.408.408 0 01-.377.224h-1.064a.334.334 0 01-.224-.084.324.324 0 01-.099-.238v-6.622c0-.093.033-.173.098-.238a.324.324 0 01.238-.098h1.163a.3.3 0 01.238.098.296.296 0 01.098.238v4.508l3.36-4.62c.102-.15.228-.224.378-.224h1.064zM55.102 21a.324.324 0 01-.238-.098.324.324 0 01-.098-.238v-5.46h-2.282a.324.324 0 01-.238-.098.341.341 0 01-.098-.252v-.798c0-.103.033-.182.098-.238a.324.324 0 01.238-.098h6.356c.103 0 .187.033.252.098a.324.324 0 01.098.238v.798a.373.373 0 01-.098.252.341.341 0 01-.252.098h-2.268v5.46a.324.324 0 01-.098.238.296.296 0 01-.238.098h-1.134zm5.534 0a.324.324 0 01-.238-.098.324.324 0 01-.098-.238v-6.608c0-.093.033-.173.098-.238a.324.324 0 01.238-.098h1.176c.093 0 .173.033.238.098a.324.324 0 01.098.238v1.974h1.442c.933 0 1.643.224 2.128.672.485.439.728 1.055.728 1.848 0 .812-.252 1.423-.756 1.834-.504.41-1.241.616-2.212.616h-2.842zm2.8-1.33c.467 0 .807-.084 1.022-.252.215-.177.322-.467.322-.868 0-.401-.107-.7-.322-.896-.215-.196-.555-.294-1.022-.294H62.12v2.31h1.316zM73.15 21a.324.324 0 01-.238-.098.324.324 0 01-.098-.238v-5.46h-2.282a.324.324 0 01-.238-.098.341.341 0 01-.098-.252v-.798c0-.103.033-.182.098-.238a.324.324 0 01.238-.098h6.356c.103 0 .187.033.252.098a.324.324 0 01.098.238v.798a.373.373 0 01-.098.252.341.341 0 01-.252.098H74.62v5.46a.324.324 0 01-.098.238.296.296 0 01-.238.098H73.15zm5.548 2.66a.324.324 0 01-.238-.098.296.296 0 01-.098-.238v-9.268c0-.103.032-.182.098-.238a.324.324 0 01.238-.098h1.106c.102 0 .182.033.238.098a.296.296 0 01.098.238v.56c.522-.69 1.27-1.036 2.24-1.036.943 0 1.666.299 2.17.896.504.588.775 1.386.812 2.394.01.112.014.275.014.49 0 .224-.005.392-.014.504-.037.98-.308 1.773-.812 2.38-.504.597-1.227.896-2.17.896-.943 0-1.661-.331-2.156-.994v3.178a.296.296 0 01-.098.238.296.296 0 01-.238.098h-1.19zm3.164-4.018c1.008 0 1.544-.62 1.61-1.862a4.58 4.58 0 00.014-.42 4.58 4.58 0 00-.014-.42c-.066-1.241-.602-1.862-1.61-1.862-.541 0-.943.173-1.204.518-.261.345-.406.77-.434 1.274l-.014.532.014.546c.019.467.163.868.434 1.204.28.327.681.49 1.204.49zm7.2 1.498a3.08 3.08 0 01-1.317-.28 2.503 2.503 0 01-.938-.784 1.866 1.866 0 01-.336-1.078c0-.635.257-1.148.77-1.54.514-.392 1.218-.658 2.114-.798l1.918-.28v-.294c0-.41-.102-.719-.308-.924-.205-.205-.536-.308-.994-.308-.308 0-.56.06-.756.182a2.329 2.329 0 00-.448.336c-.112.121-.186.2-.224.238-.037.112-.107.168-.21.168h-1.078a.335.335 0 01-.224-.084.303.303 0 01-.084-.224c.01-.233.122-.5.336-.798.224-.299.565-.555 1.022-.77.458-.215 1.018-.322 1.68-.322 1.102 0 1.904.247 2.408.742s.756 1.143.756 1.946v4.396a.324.324 0 01-.098.238.296.296 0 01-.238.098H91.68a.324.324 0 01-.238-.098.324.324 0 01-.098-.238v-.546c-.205.299-.499.546-.882.742-.373.187-.84.28-1.4.28zm.475-1.33c.514 0 .934-.168 1.26-.504.327-.336.49-.826.49-1.47v-.294l-1.4.224c-.54.084-.952.22-1.232.406-.27.187-.406.415-.406.686 0 .299.126.532.378.7.252.168.556.252.91.252zM95.281 21a.324.324 0 01-.238-.098.324.324 0 01-.098-.238v-6.608c0-.093.033-.173.099-.238a.324.324 0 01.237-.098h1.162a.3.3 0 01.239.098.296.296 0 01.097.238v2.506h3.165v-2.506c0-.103.032-.182.097-.238a.326.326 0 01.238-.098h1.162c.103 0 .182.033.238.098.066.056.098.135.098.238v6.608a.321.321 0 01-.098.238.296.296 0 01-.238.098h-1.162a.326.326 0 01-.238-.098.326.326 0 01-.097-.238v-2.632h-3.165v2.632a.324.324 0 01-.097.238.296.296 0 01-.239.098h-1.162zm11.537.14c-1.027 0-1.848-.285-2.464-.854-.607-.57-.929-1.358-.966-2.366l-.014-.56.014-.56c.037-1.008.359-1.797.966-2.366.616-.57 1.437-.854 2.464-.854.728 0 1.344.13 1.848.392.513.261.891.583 1.134.966.252.373.387.728.406 1.064a.266.266 0 01-.098.238.324.324 0 01-.238.098h-1.232a.4.4 0 01-.224-.056.775.775 0 01-.14-.224c-.14-.364-.327-.625-.56-.784-.224-.159-.513-.238-.868-.238-.476 0-.849.154-1.12.462-.271.299-.415.756-.434 1.372l-.014.518.014.462c.037 1.223.555 1.834 1.554 1.834.364 0 .658-.08.882-.238.224-.159.406-.42.546-.784a.577.577 0 01.14-.21.34.34 0 01.224-.07h1.232c.093 0 .173.033.238.098a.266.266 0 01.098.238c-.019.327-.149.677-.392 1.05-.243.373-.616.695-1.12.966-.504.27-1.129.406-1.876.406zm5.184-.14a.326.326 0 01-.238-.098.325.325 0 01-.098-.238v-6.608c0-.093.033-.173.098-.238a.326.326 0 01.238-.098h5.992c.103 0 .182.033.238.098.066.056.098.135.098.238v6.608a.321.321 0 01-.098.238.296.296 0 01-.238.098h-1.162a.326.326 0 01-.238-.098.325.325 0 01-.098-.238v-5.46H113.5v5.46a.321.321 0 01-.098.238.296.296 0 01-.238.098h-1.162zm11.443.14c-1.092 0-1.937-.28-2.534-.84-.598-.57-.92-1.344-.966-2.324l-.014-.616.014-.616c.046-.97.373-1.74.98-2.31.606-.57 1.446-.854 2.52-.854 1.073 0 1.913.285 2.52.854.606.57.933 1.34.98 2.31.009.112.014.317.014.616s-.005.504-.014.616c-.047.98-.369 1.755-.966 2.324-.598.56-1.442.84-2.534.84zm0-1.386c.494 0 .877-.154 1.148-.462.27-.317.42-.78.448-1.386a6.91 6.91 0 00.014-.546c0-.27-.005-.453-.014-.546-.028-.607-.178-1.064-.448-1.372-.271-.317-.654-.476-1.148-.476-.495 0-.878.159-1.148.476-.271.308-.42.765-.448 1.372l-.014.546.014.546c.028.607.177 1.069.448 1.386.27.308.653.462 1.148.462zm5.415 3.906a.324.324 0 01-.238-.098.297.297 0 01-.098-.238v-9.268c0-.103.033-.182.098-.238a.324.324 0 01.238-.098h1.106c.103 0 .182.033.238.098a.297.297 0 01.098.238v.56c.523-.69 1.269-1.036 2.24-1.036.943 0 1.666.299 2.17.896.504.588.775 1.386.812 2.394.009.112.014.275.014.49 0 .224-.005.392-.014.504-.037.98-.308 1.773-.812 2.38-.504.597-1.227.896-2.17.896-.943 0-1.661-.331-2.156-.994v3.178a.297.297 0 01-.098.238.296.296 0 01-.238.098h-1.19zm3.164-4.018c1.008 0 1.545-.62 1.61-1.862a4.73 4.73 0 00.014-.42 4.73 4.73 0 00-.014-.42c-.065-1.241-.602-1.862-1.61-1.862-.541 0-.943.173-1.204.518-.261.345-.406.77-.434 1.274l-.014.532.014.546c.019.467.163.868.434 1.204.28.327.681.49 1.204.49zM139.336 21a.323.323 0 01-.238-.098.321.321 0 01-.098-.238v-5.46h-2.282a.323.323 0 01-.238-.098.338.338 0 01-.098-.252v-.798c0-.103.032-.182.098-.238a.323.323 0 01.238-.098h6.356c.102 0 .186.033.252.098a.325.325 0 01.098.238v.798a.375.375 0 01-.098.252.343.343 0 01-.252.098h-2.268v5.46a.325.325 0 01-.098.238.297.297 0 01-.238.098h-1.134z" fill="#0072BC"/><circle cx="171" cy="17" r="17" fill="#0072BC"/><rect x="170.15" y="11.05" width="1.7" height="11.9" rx=".85" fill="#fff"/><rect x="165.05" y="17.85" width="1.7" height="11.9" rx=".85" transform="rotate(-90 165.05 17.85)" fill="#fff"/></svg>