<svg width="102" height="34" fill="none" xmlns="http://www.w3.org/2000/svg"><path d="M8.386 12.2c.075 0 .14.028.196.084a.252.252 0 01.098.196.664.664 0 01-.056.238L5.81 19.144c-.327.747-.63 1.316-.91 1.708-.27.392-.597.681-.98.868-.383.187-.882.28-1.498.28h-.658a.324.324 0 01-.238-.098.324.324 0 01-.098-.238v-1.036c0-.103.033-.187.098-.252a.324.324 0 01.238-.098h.518c.317 0 .588-.084.812-.252.224-.168.439-.448.644-.84L.196 12.648a.33.33 0 01-.042-.14c0-.084.028-.154.084-.21a.308.308 0 01.224-.098h1.372c.159 0 .28.089.364.266l2.478 4.62 2.03-4.62a.372.372 0 01.378-.266h1.302zm.926 11.34a.324.324 0 01-.238-.098.296.296 0 01-.098-.238v-2.352c0-.093.033-.173.098-.238a.324.324 0 01.238-.098h.112c.364 0 .63-.29.798-.868.168-.579.252-1.48.252-2.702v-1.89c0-.103.033-.182.098-.238a.324.324 0 01.238-.098h4.984c.103 0 .182.033.238.098a.296.296 0 01.098.238v5.446h.63c.103 0 .182.033.238.098a.296.296 0 01.098.238v2.366a.296.296 0 01-.098.238.297.297 0 01-.238.098h-1.148a.341.341 0 01-.252-.098.324.324 0 01-.098-.238V22H10.81v1.204a.296.296 0 01-.098.238.297.297 0 01-.238.098H9.312zm4.998-3.038v-4.298h-2.072v.938c0 1.605-.22 2.73-.658 3.374l2.73-.014zm6.187 1.638c-.476 0-.915-.093-1.316-.28a2.502 2.502 0 01-.938-.784 1.866 1.866 0 01-.336-1.078c0-.635.257-1.148.77-1.54.513-.392 1.218-.658 2.114-.798l1.918-.28v-.294c0-.41-.103-.719-.308-.924-.205-.205-.537-.308-.994-.308-.308 0-.56.06-.756.182a2.326 2.326 0 00-.448.336c-.112.121-.187.2-.224.238-.037.112-.107.168-.21.168h-1.078a.334.334 0 01-.224-.084.303.303 0 01-.084-.224c.01-.233.121-.5.336-.798.224-.299.565-.555 1.022-.77.457-.215 1.017-.322 1.68-.322 1.101 0 1.904.247 2.408.742s.756 1.143.756 1.946v4.396a.324.324 0 01-.098.238.296.296 0 01-.238.098h-1.134a.324.324 0 01-.238-.098.324.324 0 01-.098-.238v-.546c-.205.299-.5.546-.882.742-.373.187-.84.28-1.4.28zm.476-1.33c.513 0 .933-.168 1.26-.504.327-.336.49-.826.49-1.47v-.294l-1.4.224c-.541.084-.952.22-1.232.406-.27.187-.406.415-.406.686 0 .299.126.532.378.7.252.168.555.252.91.252zM26.157 22a.373.373 0 01-.252-.098.373.373 0 01-.098-.252v-.868c0-.093.028-.168.084-.224a.34.34 0 01.238-.112c.41-.019.705-.299.882-.84.187-.55.28-1.437.28-2.66v-1.89c0-.103.033-.182.098-.238a.324.324 0 01.238-.098h4.97c.093 0 .173.033.238.098a.324.324 0 01.098.238v6.608a.324.324 0 01-.098.238.324.324 0 01-.238.098h-1.162a.324.324 0 01-.238-.098.324.324 0 01-.098-.238v-5.46h-2.058v.938c0 1.213-.093 2.17-.28 2.87-.177.7-.476 1.209-.896 1.526-.41.308-.98.462-1.708.462zm15.296-7.28a.31.31 0 01.224.098.265.265 0 01.098.21v6.636a.324.324 0 01-.098.238.324.324 0 01-.238.098h-1.162a.324.324 0 01-.238-.098.324.324 0 01-.098-.238V17.17l-3.36 4.606a.408.408 0 01-.378.224h-1.064a.334.334 0 01-.224-.084.324.324 0 01-.098-.238v-6.622c0-.093.032-.173.098-.238a.324.324 0 01.238-.098h1.162c.102 0 .182.033.238.098a.296.296 0 01.098.238v4.508l3.36-4.62c.102-.15.228-.224.378-.224h1.064zM45.765 22a.324.324 0 01-.238-.098.324.324 0 01-.098-.238v-5.46h-2.282a.324.324 0 01-.238-.098.341.341 0 01-.098-.252v-.798c0-.103.033-.182.098-.238a.324.324 0 01.238-.098h6.356c.103 0 .187.033.252.098a.324.324 0 01.098.238v.798a.373.373 0 01-.098.252.341.341 0 01-.252.098h-2.268v5.46a.324.324 0 01-.098.238.296.296 0 01-.238.098h-1.134zm5.534 0a.324.324 0 01-.238-.098.324.324 0 01-.098-.238v-6.608c0-.093.033-.173.098-.238a.324.324 0 01.238-.098h1.176c.093 0 .173.033.238.098a.324.324 0 01.098.238v1.974h1.442c.933 0 1.643.224 2.128.672.485.439.728 1.055.728 1.848 0 .812-.252 1.423-.756 1.834-.504.41-1.241.616-2.212.616H51.3zm2.8-1.33c.467 0 .807-.084 1.022-.252.215-.177.322-.467.322-.868 0-.401-.107-.7-.322-.896-.215-.196-.555-.294-1.022-.294h-1.316v2.31H54.1z" fill="#ED131A"/><circle cx="85" cy="17" r="17" fill="#ED131A"/><rect x="80.192" y="13.394" width="1.7" height="11.9" rx=".85" transform="rotate(-45 80.192 13.394)" fill="#fff"/><rect x="81.394" y="21.808" width="1.7" height="11.9" rx=".85" transform="rotate(-135 81.394 21.808)" fill="#fff"/></svg>